<?xml version="1.0" encoding="UTF-8"?>
<svg version="1.1" xmlns="http://www.w3.org/2000/svg" width="612" height="408">
<path d="M0 0 C0.9215538 0.00222061 1.8431076 0.00444122 2.79258728 0.00672913 C3.83359085 0.00680466 4.87459442 0.00688019 5.94714355 0.00695801 C7.07941879 0.01211929 8.21169403 0.01728058 9.37828064 0.02259827 C10.53106003 0.02401321 11.68383942 0.02542816 12.87155151 0.02688599 C16.57043503 0.03250446 20.26925903 0.0450601 23.96812439 0.05775452 C26.46877456 0.06276714 28.96942567 0.06733045 31.47007751 0.07142639 C37.6152829 0.0824799 43.76044354 0.09975692 49.90562439 0.12025452 C49.24562439 7.38025452 48.58562439 14.64025452 47.90562439 22.12025452 C45.92562439 22.12025452 43.94562439 22.12025452 41.90562439 22.12025452 C41.71226501 21.34939514 41.51890564 20.57853577 41.31968689 19.78431702 C41.05929626 18.78142639 40.79890564 17.77853577 40.53062439 16.74525452 C40.27539001 15.74752014 40.02015564 14.74978577 39.75718689 13.72181702 C39.0815812 10.99484437 39.0815812 10.99484437 36.90562439 9.12025452 C34.00594682 8.8135022 31.18779261 8.60852081 28.28062439 8.49525452 C27.47882751 8.45658264 26.67703064 8.41791077 25.85093689 8.37806702 C23.86954883 8.2837152 21.88761794 8.20089237 19.90562439 8.12025452 C19.72193298 9.77541077 19.72193298 9.77541077 19.53453064 11.46400452 C18.89629633 16.56987897 17.87922013 21.58255931 16.84312439 26.62025452 C16.65685486 27.53806702 16.47058533 28.45587952 16.27867126 29.40150452 C15.82364312 31.64164306 15.36591172 33.88119178 14.90562439 36.12025452 C16.84398405 36.06015034 18.78146929 35.97133734 20.71812439 35.87025452 C21.7970697 35.82384827 22.87601501 35.77744202 23.98765564 35.72962952 C26.99242501 35.39068162 26.99242501 35.39068162 28.71812439 33.21400452 C29.85446736 31.21045244 30.93555588 29.20963284 31.90562439 27.12025452 C33.55562439 27.12025452 35.20562439 27.12025452 36.90562439 27.12025452 C37.13903767 33.42241306 36.30040172 38.98511908 34.90562439 45.12025452 C34.61945251 46.4254303 34.61945251 46.4254303 34.32749939 47.75697327 C33.86096342 49.87971192 33.38433975 52.00022933 32.90562439 54.12025452 C31.25562439 54.12025452 29.60562439 54.12025452 27.90562439 54.12025452 C26.93650397 50.8494731 26.90562439 48.7299002 26.90562439 45.12025452 C19.97562439 44.62525452 19.97562439 44.62525452 12.90562439 44.12025452 C12.77285095 45.27138733 12.64007751 46.42252014 12.50328064 47.60853577 C11.88199857 52.58427103 10.91678245 57.47148233 9.92320251 62.38392639 C9.21577002 66.00472619 8.63439493 69.42736107 8.90562439 73.12025452 C10.8061166 75.02074672 13.99888311 74.33827463 16.53062439 74.37025452 C24.2183538 74.35415399 24.2183538 74.35415399 30.90562439 71.12025452 C32.80464218 68.55099515 34.5156232 65.95832972 36.13218689 63.20228577 C37.90562439 61.12025452 37.90562439 61.12025452 40.61656189 60.81947327 C41.37195251 60.91873108 42.12734314 61.01798889 42.90562439 61.12025452 C43.9860921 64.36165764 43.85276288 65.15188581 42.97984314 68.31556702 C42.76005798 69.1134967 42.54027283 69.91142639 42.31382751 70.73353577 C42.07599548 71.56240295 41.83816345 72.39127014 41.59312439 73.24525452 C41.36689392 74.08185608 41.14066345 74.91845764 40.90757751 75.78041077 C39.60901431 80.39835598 39.60901431 80.39835598 38.90562439 82.12025452 C36.37818351 83.38397496 34.6418213 83.24048247 31.81333923 83.23377991 C30.22191605 83.23366661 30.22191605 83.23366661 28.5983429 83.23355103 C26.8748613 83.2258091 26.8748613 83.2258091 25.11656189 83.21791077 C23.35622116 83.21578835 23.35622116 83.21578835 21.56031799 83.21362305 C17.80039454 83.20801141 14.04052994 83.1954569 10.28062439 83.18275452 C7.73635441 83.17774102 5.19208351 83.17317785 2.64781189 83.16908264 C-3.59960414 83.15803819 -9.84698567 83.1412887 -16.09437561 83.12025452 C-16.30238342 80.75575256 -16.30238342 80.75575256 -16.09437561 78.12025452 C-14.33973559 76.97726718 -12.58474855 75.83480294 -10.82679749 74.69691467 C-7.42431901 71.60035239 -7.12001447 67.1683538 -6.34437561 62.80775452 C-6.04672302 61.33278503 -6.04672302 61.33278503 -5.74305725 59.82801819 C-5.16487888 56.93004368 -4.62493974 54.02727157 -4.09437561 51.12025452 C-3.81842392 49.67467559 -3.54123696 48.22933144 -3.26234436 46.78431702 C-2.77947836 44.23829627 -2.30791675 41.6901028 -1.84828186 39.13978577 C-0.8441983 33.65530735 0.35175116 28.20927176 1.54844666 22.76405334 C2.6003611 17.89338023 3.35401852 13.07345006 3.90562439 8.12025452 C2.93624939 7.97587952 1.96687439 7.83150452 0.96812439 7.68275452 C-2.09437561 7.12025452 -2.09437561 7.12025452 -3.09437561 6.12025452 C-3.21937561 3.62025452 -3.21937561 3.62025452 -3.09437561 1.12025452 C-2.09437561 0.12025452 -2.09437561 0.12025452 0 0 Z " fill="#F9FCFD" transform="translate(254.09437561035156,152.87974548339844)"/>
<path d="M0 0 C17.16 0 34.32 0 52 0 C52 5.84384577 51.94114764 10.47443588 51 16.0625 C50.7215625 17.75052734 50.7215625 17.75052734 50.4375 19.47265625 C50.293125 20.30667969 50.14875 21.14070313 50 22 C48.02 22 46.04 22 44 22 C43.89042969 21.31292969 43.78085938 20.62585938 43.66796875 19.91796875 C43.50941406 19.01691406 43.35085937 18.11585938 43.1875 17.1875 C43.03667969 16.29417969 42.88585937 15.40085938 42.73046875 14.48046875 C41.91197837 11.70110303 41.23430863 10.78998589 39 9 C36.98207174 8.5005539 36.98207174 8.5005539 34.76953125 8.48828125 C33.56586914 8.43510742 33.56586914 8.43510742 32.33789062 8.38085938 C31.50451172 8.35830078 30.67113281 8.33574219 29.8125 8.3125 C28.96751953 8.27833984 28.12253906 8.24417969 27.25195312 8.20898438 C25.16843351 8.12658529 23.08423784 8.06161355 21 8 C20.89042969 9.01578125 20.78085938 10.0315625 20.66796875 11.078125 C19.7016172 19.60695677 18.28265302 27.69944355 16 36 C20.95 35.67 25.9 35.34 31 35 C31.66 32.69 32.32 30.38 33 28 C34 27 34 27 37.0625 26.9375 C38.5165625 26.9684375 38.5165625 26.9684375 40 27 C39.00444555 33.56642295 37.99454043 40.13067026 36.9375 46.6875 C36.70353516 48.14736328 36.70353516 48.14736328 36.46484375 49.63671875 C36 52 36 52 35 54 C33.33388095 54.042721 31.66617115 54.04063832 30 54 C28.06729418 52.06729418 28.37336945 48.61358612 28 46 C26.91447634 44.68737429 26.91447634 44.68737429 24.27734375 44.90234375 C23.17519531 44.91394531 22.07304687 44.92554688 20.9375 44.9375 C19.83277344 44.94652344 18.72804687 44.95554688 17.58984375 44.96484375 C16.30787109 44.98224609 16.30787109 44.98224609 15 45 C14.16011547 48.91529148 13.32923187 52.83243972 12.5 56.75 C12.26152344 57.86117187 12.02304688 58.97234375 11.77734375 60.1171875 C11.43896484 61.72207031 11.43896484 61.72207031 11.09375 63.359375 C10.88427734 64.34389648 10.67480469 65.32841797 10.45898438 66.34277344 C9.8865266 69.20750927 9.8865266 69.20750927 10 73 C12.91241407 74.45620703 15.50676154 74.17039431 18.75 74.1875 C19.96171875 74.20167969 21.1734375 74.21585937 22.421875 74.23046875 C26.82602862 73.9467951 30.418266 73.39909369 33.79296875 70.4140625 C34.25316406 69.82367188 34.71335938 69.23328125 35.1875 68.625 C35.67863281 68.00753906 36.16976562 67.39007813 36.67578125 66.75390625 C37.11277344 66.17511719 37.54976562 65.59632813 38 65 C38.61875 64.195625 39.2375 63.39125 39.875 62.5625 C40.24625 62.046875 40.6175 61.53125 41 61 C42.65 61.33 44.3 61.66 46 62 C45.35587386 64.77124036 44.70977252 67.54199445 44.0625 70.3125 C43.88009766 71.09818359 43.69769531 71.88386719 43.50976562 72.69335938 C43.33251953 73.45068359 43.15527344 74.20800781 42.97265625 74.98828125 C42.81031494 75.68477783 42.64797363 76.38127441 42.48071289 77.09887695 C42.06234435 78.7534406 41.53968631 80.38094108 41 82 C38.45061185 83.27469407 36.66959002 83.12016184 33.81591797 83.11352539 C32.73494843 83.11344986 31.65397888 83.11337433 30.54025269 83.11329651 C28.78396042 83.10555458 28.78396042 83.10555458 26.9921875 83.09765625 C25.79643097 83.0962413 24.60067444 83.09482635 23.36868286 83.09336853 C19.53743013 83.08775663 15.70623516 83.07520208 11.875 83.0625 C9.28255293 83.05748653 6.69010494 83.05292336 4.09765625 83.04882812 C-2.26824898 83.03778333 -8.63412037 83.02103359 -15 83 C-16 80 -16 80 -15 77 C-13.88625 76.649375 -12.7725 76.29875 -11.625 75.9375 C-9.21217127 74.96744437 -8.22993148 74.42388133 -6.9765625 72.11328125 C-6.15033459 69.42581949 -5.54807207 66.75815491 -5 64 C-4.78085938 62.94941406 -4.56171875 61.89882812 -4.3359375 60.81640625 C-3.8379614 58.36209545 -3.35482547 55.9047485 -2.8828125 53.4453125 C-2.04993994 49.16281175 -1.10568274 44.90785838 -0.15844727 40.64941406 C2.25082025 29.81173015 4.31498142 18.97316975 6 8 C3.03 7.505 3.03 7.505 0 7 C0 4.69 0 2.38 0 0 Z " fill="#EAF2FA" transform="translate(149,153)"/>
<path d="M0 0 C1.9375 1.125 1.9375 1.125 3 3 C3.61087069 5.72115127 4 8.21284838 4 11 C4.3403125 10.54109375 4.680625 10.0821875 5.03125 9.609375 C9.33101713 4.16605278 13.55158886 0.65877234 20.55859375 -0.37890625 C24.88516558 -0.57819856 27.31214756 -0.42113415 31.0625 1.875 C34.09745909 5.20366481 34.33550847 7.58444549 34.28515625 12.07568359 C33.66275914 18.45845122 31.70195925 24.64646725 30 30.8125 C29.42531704 32.92103683 28.85393696 35.03035662 28.28808594 37.14128113 C27.77707712 39.04372535 27.25600466 40.94345802 26.734375 42.84301758 C25.84895334 46.10911791 25.84895334 46.10911791 26 50 C26.39832031 49.4946875 26.79664063 48.989375 27.20703125 48.46875 C27.73683594 47.8190625 28.26664062 47.169375 28.8125 46.5 C29.33457031 45.8503125 29.85664063 45.200625 30.39453125 44.53125 C32 43 32 43 35 43 C35.25 48.625 35.25 48.625 33 52 C32.34 52 31.68 52 31 52 C30.979375 52.5775 30.95875 53.155 30.9375 53.75 C29.70528695 56.70731131 27.82981547 57.7873179 25.0390625 59.234375 C21.42323232 60.59204304 18.84980894 60.50489298 15 60 C12.5 58.625 12.5 58.625 11 56 C9.01461144 46.99957186 12.88582421 34.04236608 17.0546875 25.95361328 C18.43538466 23.10022003 18.43628048 20.39532533 18.625 17.25 C18.69976562 16.07953125 18.77453125 14.9090625 18.8515625 13.703125 C18.90054688 12.81109375 18.94953125 11.9190625 19 11 C15.54904938 11.30478481 13.50744224 11.57923828 10.8046875 13.8203125 C10.16789062 14.58085937 9.53109375 15.34140625 8.875 16.125 C7.91207031 17.24261719 7.91207031 17.24261719 6.9296875 18.3828125 C2.37976902 24.55375456 0.00572808 30.43469044 -2.0625 37.75 C-2.31926514 38.63018799 -2.57603027 39.51037598 -2.84057617 40.41723633 C-4.45775617 45.98980545 -6.01473368 51.57862882 -7.45703125 57.19921875 C-8 59 -8 59 -9 60 C-11.01964199 60.07244053 -13.04167124 60.08377188 -15.0625 60.0625 C-16.71958984 60.04896484 -16.71958984 60.04896484 -18.41015625 60.03515625 C-19.26480469 60.02355469 -20.11945313 60.01195312 -21 60 C-20.5293356 52.16549863 -19.19428766 44.89013019 -17.1875 37.3125 C-16.64710751 35.21485094 -16.10674303 33.11719466 -15.56640625 31.01953125 C-15.30102051 30.00197754 -15.03563477 28.98442383 -14.76220703 27.93603516 C-13.68788553 23.79772946 -12.65484035 19.64955217 -11.625 15.5 C-11.08333333 13.33333333 -10.54166667 11.16666667 -10 9 C-13.78034623 12.47736026 -13.78034623 12.47736026 -16 17 C-17.98 17 -19.96 17 -22 17 C-21.44271087 13.65626525 -20.64826111 10.96687001 -19 8 C-18.34 8 -17.68 8 -17 8 C-16.7215625 7.13375 -16.7215625 7.13375 -16.4375 6.25 C-12.56197839 0.18396617 -6.62158255 -0.77251796 0 0 Z " fill="#F3F8FB" transform="translate(428,176)"/>
<path d="M0 0 C2.06890419 1.04289755 2.06890419 1.04289755 4 1 C4.9590625 0.0409375 4.9590625 0.0409375 5.9375 -0.9375 C8 -3 8 -3 10.62890625 -3.12890625 C11.80259766 -3.06509766 11.80259766 -3.06509766 13 -3 C12.52756007 5.06443968 11.07198546 12.56347058 9.0625 20.375 C6.93886141 28.88904305 5.00648162 37.27137495 4 46 C5.32 45.34 6.64 44.68 8 44 C8 43.01 8 42.02 8 41 C10.475 40.505 10.475 40.505 13 40 C13.98737625 42.58598542 14.15846853 43.63705595 13.03125 46.21875 C9.54427301 51.41363409 6.87754863 54.66924796 1 57 C-2.04310653 57.59377688 -3.81773187 57.46951497 -7 57 C-10.41704355 53.93342245 -11.23725909 51.40612466 -12 47 C-12.50789063 47.47050781 -13.01578125 47.94101563 -13.5390625 48.42578125 C-20.13621349 54.39286726 -24.68147372 57.36992675 -33.73046875 57.203125 C-36 57 -36 57 -39 56 C-39 55.34 -39 54.68 -39 54 C-39.598125 53.79375 -40.19625 53.5875 -40.8125 53.375 C-44.10698345 51.30418183 -44.73846279 49.72153477 -46 46 C-47.22908934 33.67588792 -44.50505691 23.4132334 -38 13 C-37.34 13 -36.68 13 -36 13 C-35.90847656 12.4121875 -35.81695312 11.824375 -35.72265625 11.21875 C-33.95040648 5.77746423 -27.63069768 2.13402657 -22.75 -0.375 C-14.70706887 -4.19705405 -7.84825377 -3.77319893 0 0 Z M-21.75 9.875 C-28.79144374 19.65478298 -31.42395192 29.0356087 -31.53125 41.06640625 C-31.26774314 44.07399738 -31.26774314 44.07399738 -29.171875 45.88671875 C-26.92211179 47.21661611 -26.92211179 47.21661611 -23.75 47.25 C-17.5233424 45.17444747 -14.09879179 40.86549627 -10.99707031 35.15283203 C-6.30811553 25.70780515 -1.55278389 15.67876121 -4 5 C-5.1345098 3.64933472 -5.1345098 3.64933472 -8.125 3.75 C-14.0228151 4.1305042 -17.64459153 5.58298205 -21.75 9.875 Z " fill="#F1F7FB" transform="translate(345,179)"/>
<path d="M0 0 C5.11512129 0.26651935 9.95527669 -0.15921278 15 -1 C15.54390356 1.84038527 15.74531985 3.25541002 15 6 C12.94593382 8.49735824 10.69499933 10.60812268 8.31640625 12.796875 C6.31205318 14.70320743 4.79028648 16.47176276 3.25 18.75 C1 22 1 22 -1.34765625 24.33984375 C-4.89873974 27.90138699 -7.90712859 31.81965772 -11.01171875 35.76953125 C-11.99591797 36.87361328 -11.99591797 36.87361328 -13 38 C-13.66 38 -14.32 38 -15 38 C-15.33 39.32 -15.66 40.64 -16 42 C-10.69583029 43.80567479 -5.61155374 44.90883921 0 44 C2.7905817 42.10183458 2.7905817 42.10183458 5 40 C6.32 40 7.64 40 9 40 C9.17942163 43.94727588 9.09350689 46.5980513 7 50 C6.34 50 5.68 50 5 50 C4.95875 50.5775 4.9175 51.155 4.875 51.75 C3.8373426 54.41826188 2.50502636 55.74842586 0.0703125 57.2421875 C-6.78607322 59.7518834 -14.27555445 58.06906017 -21 56 C-25.3216444 55.58073599 -28.26803827 55.51202551 -32 58 C-35.125 58.1875 -35.125 58.1875 -38 58 C-39 57 -39 57 -39.0625 53.9375 C-39.041875 52.968125 -39.02125 51.99875 -39 51 C-38.38125 50.7525 -37.7625 50.505 -37.125 50.25 C-34.64931313 48.79371361 -34.04874998 47.62187494 -33 45 C-32.34 45 -31.68 45 -31 45 C-30.72905518 44.4023584 -30.45811035 43.8047168 -30.17895508 43.18896484 C-29.01514771 41.02812475 -27.89050799 39.67156393 -26.13671875 37.9765625 C-25.57919922 37.43 -25.02167969 36.8834375 -24.44726562 36.3203125 C-23.86654297 35.76085937 -23.28582031 35.20140625 -22.6875 34.625 C-18.52133488 30.58622612 -14.67495554 26.49161232 -11 22 C-10.113125 21.13375 -9.22625 20.2675 -8.3125 19.375 C-6.2604605 17.26749997 -5.09648952 15.69138336 -4 13 C-9.52895949 11.8045493 -15.40359087 10.93083527 -21 12 C-22.97333117 13.65132316 -24.25872564 15.33201059 -25.71875 17.44140625 C-27 19 -27 19 -29.875 19.4375 C-30.57625 19.293125 -31.2775 19.14875 -32 19 C-32.76555855 16.74335355 -33.12533965 15.41923952 -32.43359375 13.10546875 C-24.72270018 -1.74178122 -16.09872328 -2.52528993 0 0 Z " fill="#EBF3FA" transform="translate(231,178)"/>
<path d="M0 0 C3.41620723 2.30824813 3.93366666 3.6683333 4.75 7.75 C4.87375 9.35875 4.87375 9.35875 5 11 C5.5259375 9.948125 5.5259375 9.948125 6.0625 8.875 C8.88635536 4.68476301 12.06311671 0.76520629 17.12890625 -0.5546875 C19.25 -0.6875 19.25 -0.6875 23 0 C25.1875 1.9375 25.1875 1.9375 26 5 C25.17054732 9.68928198 23.82660218 13.9603597 20 17 C17.8125 16.6875 17.8125 16.6875 16 16 C16 15.01 16 14.02 16 13 C13.11879448 13.30870059 12.10477636 13.88678091 10.109375 16.04296875 C7.59080113 19.57363619 5.79973127 23.19160721 4 27.125 C3.65042236 27.88127686 3.30084473 28.63755371 2.94067383 29.41674805 C-1.12500384 38.31759336 -4.19042789 47.11817263 -6.38671875 56.6640625 C-7 59 -7 59 -8 60 C-10.18639453 60.07258946 -12.37500389 60.08373783 -14.5625 60.0625 C-16.35880859 60.04896484 -16.35880859 60.04896484 -18.19140625 60.03515625 C-19.11824219 60.02355469 -20.04507812 60.01195312 -21 60 C-20.28979595 55.14312067 -19.1070865 50.4762762 -17.8125 45.75 C-14.53705174 33.58036488 -11.77875307 21.2906939 -9 9 C-11.62669829 11.5412772 -13.55140574 13.61994673 -15 17 C-16.65 17 -18.3 17 -20 17 C-20.68359375 15.28125 -20.68359375 15.28125 -21 13 C-18.07453379 7.36723794 -13.76933433 3.04583279 -7.91796875 0.58984375 C-5.0606543 -0.28888228 -2.94977988 -0.53632361 0 0 Z " fill="#EFF6FB" transform="translate(382,176)"/>
<path d="M0 0 C0.66 0.33 1.32 0.66 2 1 C2.42474733 13.10529889 0.25800307 24.76842164 -2.67871094 36.453125 C-3.41349741 39.38671484 -4 41.9614855 -4 45 C-2.68 44.34 -1.36 43.68 0 43 C0 42.01 0 41.02 0 40 C2.475 39.505 2.475 39.505 5 39 C5.98737625 41.58598542 6.15846853 42.63705595 5.03125 45.21875 C1.54427301 50.41363409 -1.12245137 53.66924796 -7 56 C-10.45641475 56.54843481 -13.70040029 56.88408144 -16.72265625 54.828125 C-18.51469453 52.26337297 -18.29665909 50.40534083 -18.1875 47.3125 C-18.14689453 45.82169922 -18.14689453 45.82169922 -18.10546875 44.30078125 C-18.07066406 43.54152344 -18.03585937 42.78226563 -18 42 C-18.495 42.495 -18.495 42.495 -19 43 C-20.32594105 43.36162029 -21.65938457 43.69728039 -23 44 C-23.33 43.34 -23.66 42.68 -24 42 C-23.33496094 40.21923828 -23.33496094 40.21923828 -22.234375 38.0703125 C-21.83984131 37.27987549 -21.44530762 36.48943848 -21.03881836 35.67504883 C-20.6135083 34.83353271 -20.18819824 33.9920166 -19.75 33.125 C-16.15883371 25.82749078 -13.39864064 19.05424092 -12 11 C-11.34 11 -10.68 11 -10 11 C-10 8.03 -10 5.06 -10 2 C-8.535625 1.855625 -7.07125 1.71125 -5.5625 1.5625 C-2.48153302 1.46504174 -2.48153302 1.46504174 0 0 Z " fill="#F4F9FB" transform="translate(353,180)"/>
<path d="M0 0 C0.33 0 0.66 0 1 0 C1.29267057 6.50379043 1.42728517 11.90260506 -1.2890625 17.87109375 C-2.21019579 20.62943245 -2.21901859 23.160981 -2.3125 26.0625 C-2.61365301 31.46272099 -3.90459567 34.11748278 -7.72265625 37.890625 C-8.14417969 38.25671875 -8.56570312 38.6228125 -9 39 C-9.66 38.67 -10.32 38.34 -11 38 C-11.66 39.32 -12.32 40.64 -13 42 C-9.60387586 41.8604947 -6.20818542 41.71227678 -2.8125 41.5625 C-1.85279297 41.52318359 -0.89308594 41.48386719 0.09570312 41.44335938 C1.02705078 41.40146484 1.95839844 41.35957031 2.91796875 41.31640625 C3.77156982 41.27974854 4.6251709 41.24309082 5.50463867 41.20532227 C8.06454594 40.99468906 10.49333243 40.55158464 13 40 C12.484375 39.401875 11.96875 38.80375 11.4375 38.1875 C10.963125 37.465625 10.48875 36.74375 10 36 C10.33 35.01 10.66 34.02 11 33 C11.495 33.495 11.495 33.495 12 34 C23.05991087 34.90511774 23.05991087 34.90511774 33 31 C34.89901779 28.43074063 36.60999881 25.8380752 38.2265625 23.08203125 C40 21 40 21 42.7109375 20.69921875 C43.46632813 20.79847656 44.22171875 20.89773437 45 21 C46.08046771 24.24140312 45.94713849 25.0316313 45.07421875 28.1953125 C44.85443359 28.99324219 44.63464844 29.79117188 44.40820312 30.61328125 C44.05145508 31.85658203 44.05145508 31.85658203 43.6875 33.125 C43.46126953 33.96160156 43.23503906 34.79820312 43.00195312 35.66015625 C41.70338992 40.27810147 41.70338992 40.27810147 41 42 C38.47255912 43.26372044 36.73619692 43.12022795 33.90771484 43.11352539 C32.31629166 43.11341209 32.31629166 43.11341209 30.69271851 43.11329651 C28.96923691 43.10555458 28.96923691 43.10555458 27.2109375 43.09765625 C26.03737701 43.0962413 24.86381653 43.09482635 23.6546936 43.09336853 C19.89477015 43.08775689 16.13490555 43.07520238 12.375 43.0625 C9.83073002 43.0574865 7.28645912 43.05292333 4.7421875 43.04882812 C-1.50522853 43.03778368 -7.75261006 43.02103418 -14 43 C-14.20776367 40.63427734 -14.20776367 40.63427734 -14 38 C-12.24563895 36.86615913 -10.49126834 35.73233305 -8.73681641 34.59863281 C-5.28774883 31.42397798 -4.97988468 26.81833447 -4.1875 22.375 C-3.99736328 21.44042969 -3.80722656 20.50585938 -3.61132812 19.54296875 C-3.04087212 16.7004904 -2.51440992 13.85311895 -2 11 C-1.80873535 9.95618164 -1.6174707 8.91236328 -1.42041016 7.83691406 C-0.94302213 5.22529612 -0.46963171 2.61302191 0 0 Z " fill="#E9F4FA" transform="translate(252,193)"/>
<path d="M0 0 C1.65 0 3.3 0 5 0 C5.23341328 6.30215855 4.39477733 11.86486456 3 18 C2.71382813 19.30517578 2.71382813 19.30517578 2.421875 20.63671875 C1.95533903 22.7594574 1.47871537 24.87997481 1 27 C-0.65 27 -2.3 27 -4 27 C-4.96912042 23.72921858 -5 21.60964568 -5 18 C-11.93 17.505 -11.93 17.505 -19 17 C-19.33 19.64 -19.66 22.28 -20 25 C-20.33 25 -20.66 25 -21 25 C-21.02689216 23.52093108 -21.04634621 22.04172517 -21.0625 20.5625 C-21.07410156 19.73878906 -21.08570313 18.91507813 -21.09765625 18.06640625 C-21 16 -21 16 -20 15 C-17.71315662 14.7180604 -15.42636727 14.55222995 -13.12890625 14.37890625 C-10.79072597 14.17223364 -10.79072597 14.17223364 -9 12 C-11.97 11.67 -14.94 11.34 -18 11 C-18 9.02 -18 7.04 -18 5 C-17.67 6.32 -17.34 7.64 -17 9 C-15.06164034 8.93989582 -13.12415509 8.85108283 -11.1875 8.75 C-9.56908203 8.68039063 -9.56908203 8.68039063 -7.91796875 8.609375 C-4.91319938 8.2704271 -4.91319938 8.2704271 -3.1875 6.09375 C-2.05115703 4.09019792 -0.97006851 2.08937832 0 0 Z " fill="#F3F9FD" transform="translate(286,180)"/>
<path d="M0 0 C2.1875 1.9375 2.1875 1.9375 3 5 C2.17054732 9.68928198 0.82660218 13.9603597 -3 17 C-5.1875 16.6875 -5.1875 16.6875 -7 16 C-7 15.01 -7 14.02 -7 13 C-11.24822374 13.47202486 -13.19989709 15.96655518 -16 19 C-16.66 17.35 -17.32 15.7 -18 14 C-18.33 14.99 -18.66 15.98 -19 17 C-19.66 16.67 -20.32 16.34 -21 16 C-20.67 12.04 -20.34 8.08 -20 4 C-19.67 4 -19.34 4 -19 4 C-18.67 6.31 -18.34 8.62 -18 11 C-17.649375 10.29875 -17.29875 9.5975 -16.9375 8.875 C-12.48421786 2.26690393 -8.19041489 -1.50157606 0 0 Z " fill="#DAE8F8" transform="translate(405,176)"/>
<path d="M0 0 C2 2 2 2 2.125 5.125 C2.08375 6.07375 2.0425 7.0225 2 8 C2.38671875 7.50628906 2.7734375 7.01257813 3.171875 6.50390625 C3.95304687 5.54291016 3.95304687 5.54291016 4.75 4.5625 C5.26046875 3.92441406 5.7709375 3.28632813 6.296875 2.62890625 C8 1 8 1 12 0 C10.02 2.31 8.04 4.62 6 7 C7.0828125 6.505 7.0828125 6.505 8.1875 6 C11.01697427 4.99396471 13.02895466 4.83022598 16 5 C16.33 5.66 16.66 6.32 17 7 C15.4840625 7.495 15.4840625 7.495 13.9375 8 C6.77988555 11.07168879 2.322581 18.2361744 -1 25 C-2.10461433 27.97103165 -3.09117524 30.9636991 -4 34 C-4.33 34 -4.66 34 -5 34 C-4.85892253 32.54119891 -4.71197585 31.08296449 -4.5625 29.625 C-4.48128906 28.81289062 -4.40007812 28.00078125 -4.31640625 27.1640625 C-4 25 -4 25 -3 23 C-2.34 23 -1.68 23 -1 23 C-1 21.35 -1 19.7 -1 18 C-1.66 18 -2.32 18 -3 18 C-3 15.69 -3 13.38 -3 11 C-2.34 10.67 -1.68 10.34 -1 10 C-0.53248212 7.64400765 -0.53248212 7.64400765 -0.375 4.9375 C-0.26285156 3.55884766 -0.26285156 3.55884766 -0.1484375 2.15234375 C-0.09945313 1.44207031 -0.05046875 0.73179687 0 0 Z " fill="#BDD1F1" transform="translate(430,179)"/>
<path d="M0 0 C0.9215538 0.00222061 1.8431076 0.00444122 2.79258728 0.00672913 C3.83359085 0.00680466 4.87459442 0.00688019 5.94714355 0.00695801 C7.07941879 0.01211929 8.21169403 0.01728058 9.37828064 0.02259827 C10.53106003 0.02401321 11.68383942 0.02542816 12.87155151 0.02688599 C16.57043503 0.03250446 20.26925903 0.0450601 23.96812439 0.05775452 C26.46877456 0.06276714 28.96942567 0.06733045 31.47007751 0.07142639 C37.6152829 0.0824799 43.76044354 0.09975692 49.90562439 0.12025452 C49.57562439 4.74025452 49.24562439 9.36025452 48.90562439 14.12025452 C48.57562439 14.12025452 48.24562439 14.12025452 47.90562439 14.12025452 C47.90562439 11.81025452 47.90562439 9.50025452 47.90562439 7.12025452 C47.24562439 7.12025452 46.58562439 7.12025452 45.90562439 7.12025452 C45.90562439 5.47025452 45.90562439 3.82025452 45.90562439 2.12025452 C30.39562439 2.12025452 14.88562439 2.12025452 -1.09437561 2.12025452 C-1.09437561 3.11025452 -1.09437561 4.10025452 -1.09437561 5.12025452 C-0.43437561 5.12025452 0.22562439 5.12025452 0.90562439 5.12025452 C0.90562439 5.78025452 0.90562439 6.44025452 0.90562439 7.12025452 C-0.41437561 6.79025452 -1.73437561 6.46025452 -3.09437561 6.12025452 C-3.13709661 4.45413547 -3.13501393 2.78642567 -3.09437561 1.12025452 C-2.09437561 0.12025452 -2.09437561 0.12025452 0 0 Z " fill="#A1BFED" transform="translate(254.09437561035156,152.87974548339844)"/>
<path d="M0 0 C0.33 0 0.66 0 1 0 C1.29267057 6.50379043 1.42728517 11.90260506 -1.2890625 17.87109375 C-2.21019579 20.62943245 -2.21901859 23.160981 -2.3125 26.0625 C-2.61365301 31.46272099 -3.90459567 34.11748278 -7.72265625 37.890625 C-8.14417969 38.25671875 -8.56570312 38.6228125 -9 39 C-9.66 38.67 -10.32 38.34 -11 38 C-11.66 39.32 -12.32 40.64 -13 42 C4.16 42 21.32 42 39 42 C39 42.33 39 42.66 39 43 C21.51 43 4.02 43 -14 43 C-14 41.35 -14 39.7 -14 38 C-12.24563895 36.86615913 -10.49126834 35.73233305 -8.73681641 34.59863281 C-5.28774883 31.42397798 -4.97988468 26.81833447 -4.1875 22.375 C-3.99736328 21.44042969 -3.80722656 20.50585938 -3.61132812 19.54296875 C-3.04087212 16.7004904 -2.51440992 13.85311895 -2 11 C-1.80873535 9.95618164 -1.6174707 8.91236328 -1.42041016 7.83691406 C-0.94302213 5.22529612 -0.46963171 2.61302191 0 0 Z " fill="#87A8DA" transform="translate(252,193)"/>
<path d="M0 0 C0.66 0.33 1.32 0.66 2 1 C1.67 1.66 1.34 2.32 1 3 C-2.96 3 -6.92 3 -11 3 C-11.33 4.32 -11.66 5.64 -12 7 C-11.01 7.33 -10.02 7.66 -9 8 C-8.62047705 14.19887485 -9.1647887 18.4477112 -12 24 C-12.33 24 -12.66 24 -13 24 C-12.44854729 18.76119922 -11.57077907 14.02649303 -10 9 C-13.78034623 12.47736026 -13.78034623 12.47736026 -16 17 C-17.98 17 -19.96 17 -22 17 C-21.44271087 13.65626525 -20.64826111 10.96687001 -19 8 C-18.34 8 -17.68 8 -17 8 C-16.7215625 7.13375 -16.7215625 7.13375 -16.4375 6.25 C-12.49680722 0.08195913 -6.68405983 -0.56644575 0 0 Z " fill="#B3CDF2" transform="translate(428,176)"/>
<path d="M0 0 C0.93423645 3.01031744 1.04449911 3.86650268 0 7 C-2.54938815 8.27469407 -4.33040998 8.12016184 -7.18408203 8.11352539 C-8.26505157 8.11344986 -9.34602112 8.11337433 -10.45974731 8.11329651 C-12.21603958 8.10555458 -12.21603958 8.10555458 -14.0078125 8.09765625 C-15.20356903 8.0962413 -16.39932556 8.09482635 -17.63131714 8.09336853 C-21.46256987 8.08775663 -25.29376484 8.07520208 -29.125 8.0625 C-31.71744707 8.05748653 -34.30989506 8.05292336 -36.90234375 8.04882812 C-43.26824898 8.03778333 -49.63412037 8.02103359 -56 8 C-57 5 -57 5 -56 2 C-55.01 2.33 -54.02 2.66 -53 3 C-53.33 3.99 -53.66 4.98 -54 6 C-36.51 6 -19.02 6 -1 6 C-0.67 4.02 -0.34 2.04 0 0 Z " fill="#9CBBE4" transform="translate(190,228)"/>
<path d="M0 0 C0.25 5.625 0.25 5.625 -2 9 C-2.66 9 -3.32 9 -4 9 C-4.020625 9.5775 -4.04125 10.155 -4.0625 10.75 C-5.29471305 13.70731131 -7.17018453 14.7873179 -9.9609375 16.234375 C-13.57676768 17.59204304 -16.15019106 17.50489298 -20 17 C-22.5 15.625 -22.5 15.625 -24 13 C-24.31607666 9.63905152 -24.2311397 6.3643667 -24 3 C-23.67 3 -23.34 3 -23 3 C-22.67 6.63 -22.34 10.26 -22 14 C-15.92907443 14.1262937 -15.92907443 14.1262937 -10 13 C-9.67 12.34 -9.34 11.68 -9 11 C-8.01 11 -7.02 11 -6 11 C-6 9.35 -6 7.7 -6 6 C-6.99 6.495 -6.99 6.495 -8 7 C-6.13932792 2.84926997 -4.83061881 0 0 0 Z " fill="#B6D9F5" transform="translate(463,219)"/>
<path d="M0 0 C2.06890419 1.04289755 2.06890419 1.04289755 4 1 C4.639375 0.360625 5.27875 -0.27875 5.9375 -0.9375 C8 -3 8 -3 10.62890625 -3.12890625 C11.80259766 -3.06509766 11.80259766 -3.06509766 13 -3 C12.57045059 3.25107435 11.98598493 9.04204521 10 15 C9.1276588 12.00519083 8.89170234 9.36424089 8.9375 6.25 C8.94652344 5.45078125 8.95554687 4.6515625 8.96484375 3.828125 C8.97644531 3.22484375 8.98804688 2.6215625 9 2 C8.01 2.495 8.01 2.495 7 3 C5.45976004 3.06950541 3.91665012 3.08452357 2.375 3.0625 C1.14910156 3.04896484 1.14910156 3.04896484 -0.1015625 3.03515625 C-1.04128906 3.01775391 -1.04128906 3.01775391 -2 3 C-2 2.34 -2 1.68 -2 1 C-5.30994713 -0.65497356 -8.99123 -0.10084335 -12.625 -0.0625 C-13.82769531 -0.05573242 -13.82769531 -0.05573242 -15.0546875 -0.04882812 C-17.03649006 -0.03703168 -19.01825433 -0.01909605 -21 0 C-15.18734795 -5.81265205 -6.49643951 -3.12328822 0 0 Z " fill="#BBD6F1" transform="translate(345,179)"/>
<path d="M0 0 C1.79296875 1.19921875 1.79296875 1.19921875 3 3 C3.07421875 5.48046875 3.07421875 5.48046875 2.6875 8.1875 C2.56761719 9.08855469 2.44773437 9.98960937 2.32421875 10.91796875 C2.21722656 11.60503906 2.11023438 12.29210937 2 13 C1.67 13 1.34 13 1 13 C0.34 10.69 -0.32 8.38 -1 6 C-6.19209404 5.78807779 -10.126739 6.4087311 -15 8 C-14.7395304 4.78754157 -14.42509628 3.3852435 -12 1.1875 C-8.03642717 -0.38141424 -4.2124221 -0.80461995 0 0 Z " fill="#E9F2FB" transform="translate(341,178)"/>
<path d="M0 0 C1.31355469 -0.02578125 2.62710937 -0.0515625 3.98046875 -0.078125 C8.13508497 0.27762195 11.77117582 1.20867582 14.8125 4.25 C15.04613881 6.09891946 15.22553635 7.95488031 15.375 9.8125 C15.50068359 11.33037109 15.50068359 11.33037109 15.62890625 12.87890625 C15.68949219 13.66136719 15.75007813 14.44382813 15.8125 15.25 C17.1325 15.25 18.4525 15.25 19.8125 15.25 C19.8125 13.6 19.8125 11.95 19.8125 10.25 C20.1425 10.25 20.4725 10.25 20.8125 10.25 C20.8125 12.23 20.8125 14.21 20.8125 16.25 C18.8325 16.25 16.8525 16.25 14.8125 16.25 C14.52246094 15.09371094 14.52246094 15.09371094 14.2265625 13.9140625 C13.96617187 12.91117188 13.70578125 11.90828125 13.4375 10.875 C13.18226563 9.87726563 12.92703125 8.87953125 12.6640625 7.8515625 C11.98845681 5.12458985 11.98845681 5.12458985 9.8125 3.25 C6.91282243 2.94324768 4.09466822 2.73826629 1.1875 2.625 C0.38570313 2.58632812 -0.41609375 2.54765625 -1.2421875 2.5078125 C-3.22357556 2.41346069 -5.20550645 2.33063785 -7.1875 2.25 C-7.33058594 3.44625 -7.47367187 4.6425 -7.62109375 5.875 C-8.05639199 9.35738591 -8.60307615 12.79973949 -9.25 16.25 C-9.42660156 17.19875 -9.60320312 18.1475 -9.78515625 19.125 C-9.91792969 19.82625 -10.05070312 20.5275 -10.1875 21.25 C-10.5175 21.25 -10.8475 21.25 -11.1875 21.25 C-11.59316938 14.21839747 -10.26273451 7.97031901 -8.1875 1.25 C-6.23283483 -0.70466517 -2.65864994 0.02016038 0 0 Z " fill="#A5C4ED" transform="translate(281.1875,158.75)"/>
<path d="M0 0 C-0.33 1.32 -0.66 2.64 -1 4 C-0.01 4 0.98 4 2 4 C2 5.65 2 7.3 2 9 C1.67 8.01 1.34 7.02 1 6 C-1.66735273 8.48952921 -3.55746343 10.63408134 -5 14 C-6.65 14 -8.3 14 -10 14 C-10.70703125 12.29296875 -10.70703125 12.29296875 -11 10 C-9.63671875 7.67578125 -9.63671875 7.67578125 -7.6875 5.3125 C-7.05199219 4.52488281 -6.41648437 3.73726562 -5.76171875 2.92578125 C-3.80219138 0.78377018 -2.91498489 0 0 0 Z " fill="#BAD1F1" transform="translate(372,179)"/>
<path d="M0 0 C1.65 0 3.3 0 5 0 C5.21824777 6.0018137 4.5056904 11.19233704 3 17 C2.67 17 2.34 17 2 17 C1.90311779 11.55306686 1.87137825 6.36095333 3 1 C2.34 1 1.68 1 1 1 C0.7834375 2.11375 0.7834375 2.11375 0.5625 3.25 C0.09968589 5.51264678 -0.43986518 7.7594607 -1 10 C-6.61 10 -12.22 10 -18 10 C-18 8.35 -18 6.7 -18 5 C-17.67 6.32 -17.34 7.64 -17 9 C-15.06164034 8.93989582 -13.12415509 8.85108283 -11.1875 8.75 C-9.56908203 8.68039063 -9.56908203 8.68039063 -7.91796875 8.609375 C-4.91319938 8.2704271 -4.91319938 8.2704271 -3.1875 6.09375 C-2.05115703 4.09019792 -0.97006851 2.08937832 0 0 Z " fill="#AFCFF2" transform="translate(286,180)"/>
<path d="M0 0 C0 1.65 0 3.3 0 5 C-0.99 5.33 -1.98 5.66 -3 6 C-3.0825 7.11375 -3.165 8.2275 -3.25 9.375 C-3.87919026 14.6151219 -5.88630871 19.20241234 -8 24 C-8.33 24 -8.66 24 -9 24 C-8.85892253 22.54119891 -8.71197585 21.08296449 -8.5625 19.625 C-8.48128906 18.81289062 -8.40007812 18.00078125 -8.31640625 17.1640625 C-8 15 -8 15 -7 13 C-6.34 13 -5.68 13 -5 13 C-5 11.35 -5 9.7 -5 8 C-5.66 8 -6.32 8 -7 8 C-7 5.69 -7 3.38 -7 1 C-4.53721199 -0.231394 -2.7204945 -0.07159196 0 0 Z " fill="#F6FCFE" transform="translate(434,189)"/>
<path d="M0 0 C0.33 0.99 0.66 1.98 1 3 C1.99 3 2.98 3 4 3 C4.33 2.34 4.66 1.68 5 1 C5.66 1.33 6.32 1.66 7 2 C6.67 4.97 6.34 7.94 6 11 C5.67 11 5.34 11 5 11 C4.67 9.35 4.34 7.7 4 6 C3.59007812 6.433125 3.18015625 6.86625 2.7578125 7.3125 C2.21898437 7.869375 1.68015625 8.42625 1.125 9 C0.59132813 9.556875 0.05765625 10.11375 -0.4921875 10.6875 C-2 12 -2 12 -4 12 C-4 11.01 -4 10.02 -4 9 C-3.34 8.67 -2.68 8.34 -2 8 C-3.32 7.01 -4.64 6.02 -6 5 C-4.02 3.35 -2.04 1.7 0 0 Z " fill="#B6CCEC" transform="translate(329,220)"/>
<path d="M0 0 C6.6 0 13.2 0 20 0 C19.67 0.99 19.34 1.98 19 3 C9.595 3.495 9.595 3.495 0 4 C0 2.66666667 0 1.33333333 0 0 Z " fill="#FDFEFC" transform="translate(158,230)"/>
<path d="M0 0 C-0.67097672 4.19360449 -2.8558394 7.40334352 -5 11 C-5.99 11 -6.98 11 -8 11 C-8 9.68 -8 8.36 -8 7 C-8.66 7 -9.32 7 -10 7 C-9.34 5.68 -8.68 4.36 -8 3 C-7.34 3 -6.68 3 -6 3 C-6 2.01 -6 1.02 -6 0 C-3.50907189 -1.24546405 -2.58919267 -0.7767578 0 0 Z " fill="#BFD7F5" transform="translate(359,220)"/>
<path d="M0 0 C0 3.26229641 -0.21770324 4.32655486 -2 7 C-2.9075 7.5775 -3.815 8.155 -4.75 8.75 C-7.78228321 10.84927299 -9.02869072 12.23926485 -11.0625 15.1875 C-13.6601575 18.88179391 -13.6601575 18.88179391 -16.875 20 C-17.57625 20 -18.2775 20 -19 20 C-18.01 18.515 -18.01 18.515 -17 17 C-16.34 17 -15.68 17 -15 17 C-14.599021 16.11006348 -14.599021 16.11006348 -14.18994141 15.20214844 C-12.98415007 12.97066755 -11.7641905 11.5335201 -9.9609375 9.765625 C-9.38085938 9.19199219 -8.80078125 8.61835938 -8.203125 8.02734375 C-7.59984375 7.44082031 -6.9965625 6.85429687 -6.375 6.25 C-5.76398438 5.64800781 -5.15296875 5.04601562 -4.5234375 4.42578125 C-3.02011376 2.94594695 -1.51065144 1.47235324 0 0 Z " fill="#C4DCF5" transform="translate(215,206)"/>
<path d="M0 0 C1.65 0.33 3.3 0.66 5 1 C4.01 5.29 3.02 9.58 2 14 C1.67 14 1.34 14 1 14 C1 11.03 1 8.06 1 5 C-0.65 6.32 -2.3 7.64 -4 9 C-4.66 8.67 -5.32 8.34 -6 8 C-4.02 5.36 -2.04 2.72 0 0 Z " fill="#BED6F1" transform="translate(190,214)"/>
<path d="M0 0 C1.1259207 3.92802409 0.68444529 7.03445097 0 11 C-0.13535156 11.97195312 -0.27070313 12.94390625 -0.41015625 13.9453125 C-0.56355469 14.99460938 -0.71695312 16.04390625 -0.875 17.125 C-1.01679688 18.11757812 -1.15859375 19.11015625 -1.3046875 20.1328125 C-2.05263372 23.21704018 -3.24145867 25.37660227 -5 28 C-6.25414522 24.41247479 -5.73271684 21.99491358 -4.78515625 18.359375 C-4.37426758 16.75449219 -4.37426758 16.75449219 -3.95507812 15.1171875 C-3.66052734 14.00601563 -3.36597656 12.89484375 -3.0625 11.75 C-2.77181641 10.62335938 -2.48113281 9.49671875 -2.18164062 8.3359375 C-1.46283595 5.55498826 -0.73534019 2.77661416 0 0 Z " fill="#C1D3F6" transform="translate(414,201)"/>
<path d="M0 0 C1.65 0 3.3 0 5 0 C6.04179773 2.7086741 6.04704471 3.86211033 5.09375 6.65625 C3.87914224 10.36947943 3.33139336 14.01436106 2.875 17.875 C2.78863281 18.56335938 2.70226562 19.25171875 2.61328125 19.9609375 C2.40340434 21.63995275 2.20092913 23.31989048 2 25 C1.34 25 0.68 25 0 25 C-0.15490223 19.26861756 0.34755115 14.10650794 1.5 8.5 C1.64308594 7.77296875 1.78617187 7.0459375 1.93359375 6.296875 C2.28233698 4.52990929 2.64019723 2.76474691 3 1 C2.01 0.67 1.02 0.34 0 0 Z " fill="#BAD1F6" transform="translate(255,160)"/>
<path d="M0 0 C3.07533029 1.09972362 3.07533029 1.09972362 6 0 C5.67 0.99 5.34 1.98 5 3 C2.69 3 0.38 3 -2 3 C-2 2.34 -2 1.68 -2 1 C-5.30994713 -0.65497356 -8.99123 -0.10084335 -12.625 -0.0625 C-13.82769531 -0.05573242 -13.82769531 -0.05573242 -15.0546875 -0.04882812 C-17.03649006 -0.03703168 -19.01825433 -0.01909605 -21 0 C-15.18734795 -5.81265205 -6.49643951 -3.12328822 0 0 Z " fill="#A2BBEA" transform="translate(345,179)"/>
<path d="M0 0 C0 0.66 0 1.32 0 2 C-4.521243 5.05489392 -8.30155542 6.11895162 -13.6875 6.5625 C-14.68136719 6.64628906 -15.67523438 6.73007813 -16.69921875 6.81640625 C-17.45847656 6.87699219 -18.21773437 6.93757812 -19 7 C-19 6.34 -19 5.68 -19 5 C-20.11375 4.87625 -21.2275 4.7525 -22.375 4.625 C-26 4 -26 4 -28 2 C-25 2 -25 2 -21.875 3 C-17.60306661 4.24899747 -13.41590671 4.71519393 -9 4 C-3.375 0 -3.375 0 0 0 Z " fill="#B7D1F1" transform="translate(240,218)"/>
<path d="M0 0 C0.86963087 2.99706695 1.11763099 5.64956526 1.09765625 8.765625 C1.09443359 9.65507812 1.09121094 10.54453125 1.08789062 11.4609375 C1.07951172 12.38132813 1.07113281 13.30171875 1.0625 14.25 C1.05798828 15.18585938 1.05347656 16.12171875 1.04882812 17.0859375 C1.03706918 19.39069041 1.02063426 21.69531227 1 24 C-1 23 -1 23 -2 20 C-2.40389002 13.04933449 -2.4430337 6.56565308 0 0 Z " fill="#AECEF3" transform="translate(301,205)"/>
<path d="M0 0 C0.66 0 1.32 0 2 0 C1.67 2.31 1.34 4.62 1 7 C0.01 7.33 -0.98 7.66 -2 8 C-2.433125 8.8971875 -2.433125 8.8971875 -2.875 9.8125 C-4.37206594 12.72346154 -6.34303887 14.14012721 -9 16 C-9.66 16 -10.32 16 -11 16 C-11 15.34 -11 14.68 -11 14 C-9.56023495 12.82809821 -8.11892942 11.65801137 -6.66796875 10.5 C-3.88169238 7.99430883 -2.02062525 5.14979819 0 2 C0 1.34 0 0.68 0 0 Z " fill="#C0D9F2" transform="translate(227,190)"/>
<path d="M0 0 C1.00685307 3.0205592 1.02876261 4.47076266 0.6875 7.5625 C0.60886719 8.34753906 0.53023438 9.13257813 0.44921875 9.94140625 C0 12 0 12 -2 14 C-2.16677282 17.58343976 -2.16677282 17.58343976 -2 21 C-2.99 20.67 -3.98 20.34 -5 20 C-4.35346673 13.04976736 -2.13972752 6.61822697 0 0 Z " fill="#BAD3F3" transform="translate(445,202)"/>
<path d="M0 0 C8.25 0 16.5 0 25 0 C25 0.33 25 0.66 25 1 C17.41 1 9.82 1 2 1 C2 1.99 2 2.98 2 4 C2.66 4 3.32 4 4 4 C4 4.66 4 5.32 4 6 C2.68 5.67 1.36 5.34 0 5 C0 3.35 0 1.7 0 0 Z " fill="#D3E7F7" transform="translate(251,154)"/>
<path d="M0 0 C0.33 0 0.66 0 1 0 C1.4254289 9.45397559 0.25103374 15.57186353 -4 24 C-3.28621973 15.86290495 -1.67226118 7.98268072 0 0 Z " fill="#B3CDF1" transform="translate(252,193)"/>
<path d="M0 0 C7.50769231 -0.36923077 7.50769231 -0.36923077 10 1.5 C10.495 2.2425 10.495 2.2425 11 3 C10 4 10 4 7.71484375 4.09765625 C6.34005859 4.08025391 6.34005859 4.08025391 4.9375 4.0625 C4.01839844 4.05347656 3.09929687 4.04445312 2.15234375 4.03515625 C1.44207031 4.02355469 0.73179687 4.01195312 0 4 C0 2.68 0 1.36 0 0 Z " fill="#F6FDFE" transform="translate(333,178)"/>
<path d="M0 0 C0.33 0 0.66 0 1 0 C1.33 3.63 1.66 7.26 2 11 C5.3 11.33 8.6 11.66 12 12 C12 12.66 12 13.32 12 14 C4.86486486 14.47567568 4.86486486 14.47567568 1.5 12.625 C-0.81720603 8.56988944 -0.3135704 4.56419136 0 0 Z " fill="#86B6E2" transform="translate(439,222)"/>
<path d="M0 0 C0.33 0 0.66 0 1 0 C1.51778074 7.69479711 0.7505733 13.21882953 -3 20 C-4.04940487 16.85178538 -3.98606526 16.0650509 -3.22265625 12.98828125 C-3.03896484 12.23095703 -2.85527344 11.47363281 -2.66601562 10.69335938 C-2.46685547 9.90767578 -2.26769531 9.12199219 -2.0625 8.3125 C-1.86720703 7.51521484 -1.67191406 6.71792969 -1.47070312 5.89648438 C-0.98771618 3.92919611 -0.4948037 1.96434946 0 0 Z " fill="#ADC9EA" transform="translate(368,205)"/>
<path d="M0 0 C0.66 0 1.32 0 2 0 C0.33846988 5.85659906 -1.47041916 11.4590134 -4 17 C-4.33 17 -4.66 17 -5 17 C-4.69343615 10.37822074 -3.25711277 5.77874846 0 0 Z " fill="#BED2F6" transform="translate(382,206)"/>
<path d="M0 0 C0.66 0 1.32 0 2 0 C2.33 1.32 2.66 2.64 3 4 C3.99 4 4.98 4 6 4 C6 5.65 6 7.3 6 9 C4.35 9 2.7 9 1 9 C0.08941469 5.92677456 -0.08886184 3.19902639 0 0 Z " fill="#D0E3FD" transform="translate(281,198)"/>
<path d="M0 0 C0.66 0 1.32 0 2 0 C1.40984815 5.50808397 0.43336231 10.64878069 -1 16 C-1.33 16 -1.66 16 -2 16 C-2.05449838 14.27119018 -2.09301688 12.54187288 -2.125 10.8125 C-2.14820313 9.84957031 -2.17140625 8.88664063 -2.1953125 7.89453125 C-1.9913544 4.87187222 -1.26874632 2.73230015 0 0 Z " fill="#B6D8F5" transform="translate(159,210)"/>
<path d="M0 0 C2.625 -0.1875 2.625 -0.1875 5 0 C6.21065165 3.63195496 5.62784815 5.06531629 4.5625 8.6875 C4.27503906 9.68136719 3.98757813 10.67523438 3.69140625 11.69921875 C3.46324219 12.45847656 3.23507812 13.21773437 3 14 C2.67 14 2.34 14 2 14 C2.14168137 12.56208484 2.28851043 11.1246763 2.4375 9.6875 C2.51871094 8.88699219 2.59992188 8.08648437 2.68359375 7.26171875 C3 5 3 5 4 2 C2.68 2 1.36 2 0 2 C0 2.66 0 3.32 0 4 C-0.66 3.67 -1.32 3.34 -2 3 C-1.34 2.01 -0.68 1.02 0 0 Z " fill="#94B9EE" transform="translate(292,214)"/>
<path d="M0 0 C1.67641098 4.09086452 0.2409319 7.71511018 -0.9375 11.75 C-1.13279297 12.44738281 -1.32808594 13.14476562 -1.52929688 13.86328125 C-2.0108246 15.57798973 -2.50425157 17.28934877 -3 19 C-3.33 19 -3.66 19 -4 19 C-4.62621031 12.11168659 -2.35806067 6.41097745 0 0 Z " fill="#B8D4F5" transform="translate(460,191)"/>
<path d="M0 0 C-2.05233685 2.2477975 -3.00667261 3.0022242 -6 4 C-7.72795352 4.06802967 -9.45835365 4.08495645 -11.1875 4.0625 C-12.53908203 4.04896484 -12.53908203 4.04896484 -13.91796875 4.03515625 C-14.60503906 4.02355469 -15.29210937 4.01195312 -16 4 C-16 3.67 -16 3.34 -16 3 C-14.88625 2.690625 -13.7725 2.38125 -12.625 2.0625 C-7.93319716 0.68731641 -4.9963577 -0.09252514 0 0 Z " fill="#9CBAE4" transform="translate(325,232)"/>
<path d="M0 0 C0.33 0 0.66 0 1 0 C1.22211116 1.93596892 1.42722992 3.87389328 1.625 5.8125 C1.74101562 6.89144531 1.85703125 7.97039062 1.9765625 9.08203125 C2 12 2 12 0 15 C-0.66 15 -1.32 15 -2 15 C-1.85816304 13.24967156 -1.71136571 11.49974466 -1.5625 9.75 C-1.48128906 8.77546875 -1.40007812 7.8009375 -1.31640625 6.796875 C-1.04925416 4.43538247 -0.64628032 2.28098935 0 0 Z " fill="#C5DCF4" transform="translate(150,187)"/>
<path d="M0 0 C1.69141656 0.08963062 3.37959602 0.24577676 5.0625 0.4375 C6.44115234 0.59025391 6.44115234 0.59025391 7.84765625 0.74609375 C8.55792969 0.82988281 9.26820313 0.91367188 10 1 C10 1.33 10 1.66 10 2 C7.03 2 4.06 2 1 2 C0.67 4.64 0.34 7.28 0 10 C-0.33 10 -0.66 10 -1 10 C-1.02689216 8.52093108 -1.04634621 7.04172517 -1.0625 5.5625 C-1.07410156 4.73878906 -1.08570313 3.91507813 -1.09765625 3.06640625 C-1 1 -1 1 0 0 Z " fill="#95B3E4" transform="translate(266,195)"/>
<path d="M0 0 C0.99 0 1.98 0 3 0 C3.37952295 6.19887485 2.8352113 10.4477112 0 16 C-0.33 16 -0.66 16 -1 16 C-0.44854729 10.76119922 0.42922093 6.02649303 2 1 C1.34 0.67 0.68 0.34 0 0 Z " fill="#A8C9EB" transform="translate(416,184)"/>
<path d="M0 0 C0 0.66 0 1.32 0 2 C-3.55556591 5.39019075 -5.95575532 7.55491959 -11 8 C-9.83630874 4.50892621 -9.11026462 4.14777237 -6.0625 2.3125 C-5.35222656 1.87550781 -4.64195312 1.43851563 -3.91015625 0.98828125 C-2 0 -2 0 0 0 Z " fill="#B5CDF4" transform="translate(324,179)"/>
<path d="M0 0 C4.62 0 9.24 0 14 0 C13.67 0.66 13.34 1.32 13 2 C9.04340734 3.31886422 6.17660573 3.26518132 2 3 C1.34 2.01 0.68 1.02 0 0 Z " fill="#9DBAEA" transform="translate(336,233)"/>
<path d="M0 0 C1.32 0.33 2.64 0.66 4 1 C1.36 3.97 -1.28 6.94 -4 10 C-5 6 -5 6 -4.00390625 4.296875 C-2.66927083 2.86458333 -1.33463542 1.43229167 0 0 Z " fill="#AFC8EB" transform="translate(238,187)"/>
<path d="M0 0 C0.66 0 1.32 0 2 0 C1.7168444 2.08450717 1.42314331 4.16758367 1.125 6.25 C0.96257812 7.41015625 0.80015625 8.5703125 0.6328125 9.765625 C0.08179569 12.58193313 -0.55796482 14.55217557 -2 17 C-3.21374419 12.02364881 -2.60791847 8.8237554 -1 4 C-0.65864073 2.66869885 -0.32074044 1.33641852 0 0 Z " fill="#B2CDEE" transform="translate(350,205)"/>
<path d="M0 0 C0.6875 1.8125 0.6875 1.8125 1 4 C-0.4375 5.75 -0.4375 5.75 -2 7 C-2.99 6.67 -3.98 6.34 -5 6 C-4.75 4.125 -4.75 4.125 -4 2 C-1.9375 0.75 -1.9375 0.75 0 0 Z " fill="#D7E9F8" transform="translate(366,186)"/>
<path d="M0 0 C0.33 0 0.66 0 1 0 C0.48517081 5.852795 -0.45357192 11.3297637 -2 17 C-4 13.25 -4 13.25 -4 11 C-3.34 11 -2.68 11 -2 11 C-2.061875 9.1128125 -2.061875 9.1128125 -2.125 7.1875 C-2.2390374 3.70935927 -2.05925681 3.08888522 0 0 Z " fill="#9DC7F2" transform="translate(455,210)"/>
<path d="M0 0 C0.99 0.33 1.98 0.66 3 1 C2.21625 1.9075 1.4325 2.815 0.625 3.75 C-1.30052496 6.05190236 -2.82205741 8.21577207 -4 11 C-4.33 11 -4.66 11 -5 11 C-5 9.02 -5 7.04 -5 5 C-3.68 4.67 -2.36 4.34 -1 4 C-0.67 2.68 -0.34 1.36 0 0 Z " fill="#ABCEF2" transform="translate(435,190)"/>
<path d="M0 0 C0.99773437 0.02320313 1.99546875 0.04640625 3.0234375 0.0703125 C4.52777344 0.09738281 4.52777344 0.09738281 6.0625 0.125 C6.83335937 0.14820313 7.60421875 0.17140625 8.3984375 0.1953125 C8.3984375 3.1653125 8.3984375 6.1353125 8.3984375 9.1953125 C8.0684375 9.1953125 7.7384375 9.1953125 7.3984375 9.1953125 C6.7384375 6.8853125 6.0784375 4.5753125 5.3984375 2.1953125 C2.0984375 2.1953125 -1.2015625 2.1953125 -4.6015625 2.1953125 C-2.6015625 0.1953125 -2.6015625 0.1953125 0 0 Z " fill="#9BBCEA" transform="translate(334.6015625,181.8046875)"/>
<path d="M0 0 C0 0.66 0 1.32 0 2 C-0.60328125 2.04898438 -1.2065625 2.09796875 -1.828125 2.1484375 C-3.02695312 2.26058594 -3.02695312 2.26058594 -4.25 2.375 C-5.43335938 2.47941406 -5.43335938 2.47941406 -6.640625 2.5859375 C-9.085877 3.01507113 -10.84836903 3.78600638 -13 5 C-8.7797731 -0.27528362 -6.38501231 -0.54110274 0 0 Z " fill="#9EC0E6" transform="translate(405,176)"/>
<path d="M0 0 C2.10353495 -0.0810206 4.20795952 -0.13919907 6.3125 -0.1875 C7.48425781 -0.22230469 8.65601563 -0.25710937 9.86328125 -0.29296875 C13 0 13 0 14.91796875 1.51171875 C15.45357422 2.24841797 15.45357422 2.24841797 16 3 C15.05125 2.835 14.1025 2.67 13.125 2.5 C8.4236123 1.81458208 3.73996714 1.91416559 -1 2 C-0.67 1.34 -0.34 0.68 0 0 Z " fill="#A8D0F6" transform="translate(201,232)"/>
<path d="M0 0 C1 3 1 3 0 6 C-0.66 6 -1.32 6 -2 6 C-2.33 8.31 -2.66 10.62 -3 13 C-3.33 13 -3.66 13 -4 13 C-4.17673419 8.4932782 -4.13551182 5.03374456 -2 1 C-1.34 0.67 -0.68 0.34 0 0 Z " fill="#D3E7F8" transform="translate(423,218)"/>
<path d="M0 0 C0 3.21534057 -0.26476072 4.35582586 -2 7 C-4.5 8.8125 -4.5 8.8125 -7 10 C-7.66 9.67 -8.32 9.34 -9 9 C-6.03 6.03 -3.06 3.06 0 0 Z " fill="#A1BEF0" transform="translate(215,206)"/>
<path d="M0 0 C1.98 0 3.96 0 6 0 C5.67 2.64 5.34 5.28 5 8 C3 6 3 6 2.875 3.375 C2.91625 2.59125 2.9575 1.8075 3 1 C1.68 1.99 0.36 2.98 -1 4 C-0.67 2.68 -0.34 1.36 0 0 Z " fill="#A5C0EC" transform="translate(183,180)"/>
<path d="M0 0 C0.33 0 0.66 0 1 0 C1 4.29 1 8.58 1 13 C0.01 13.33 -0.98 13.66 -2 14 C-1.33333333 9.33333333 -0.66666667 4.66666667 0 0 Z " fill="#B7D0F5" transform="translate(155,161)"/>
<path d="M0 0 C1.65 0 3.3 0 5 0 C6.46726798 3.81489674 5.43336419 6.29011622 4 10 C3.67 10 3.34 10 3 10 C3 7.03 3 4.06 3 1 C2.01 0.67 1.02 0.34 0 0 Z " fill="#C5D7F0" transform="translate(255,160)"/>
<path d="M0 0 C0.66 0 1.32 0 2 0 C1.34 1.98 0.68 3.96 0 6 C-0.66 6 -1.32 6 -2 6 C-2.33 7.32 -2.66 8.64 -3 10 C-3.66 9.67 -4.32 9.34 -5 9 C-4.1875 6.5625 -4.1875 6.5625 -3 4 C-2.01 3.67 -1.02 3.34 0 3 C0 2.01 0 1.02 0 0 Z " fill="#B2C8EB" transform="translate(238,222)"/>
<path d="M0 0 C0.33 0 0.66 0 1 0 C1.07654536 4.51617599 1.10228696 8.59085217 0 13 C-0.33 13 -0.66 13 -1 13 C-1.22245393 11.39773045 -1.42746669 9.79303233 -1.625 8.1875 C-1.74101562 7.29417969 -1.85703125 6.40085938 -1.9765625 5.48046875 C-2 3 -2 3 0 0 Z " fill="#BAD4EE" transform="translate(262,213)"/>
<path d="M0 0 C0.33 0 0.66 0 1 0 C1.33 2.64 1.66 5.28 2 8 C1.34 8 0.68 8 0 8 C0 9.32 0 10.64 0 12 C-0.66 12 -1.32 12 -2 12 C-1 3.42857143 -1 3.42857143 0 0 Z " fill="#B3CEF5" transform="translate(147,202)"/>
<path d="M0 0 C0 3.01490557 -0.51952735 4.86864114 -1.5 7.6875 C-1.91765625 8.89986328 -1.91765625 8.89986328 -2.34375 10.13671875 C-2.66859375 11.05904297 -2.66859375 11.05904297 -3 12 C-3.33 12 -3.66 12 -4 12 C-3.91253716 10.56138706 -3.80434652 9.12402492 -3.6875 7.6875 C-3.62949219 6.88699219 -3.57148438 6.08648437 -3.51171875 5.26171875 C-2.91793306 2.63727666 -2.04219706 1.69179328 0 0 Z " fill="#B7CFF2" transform="translate(429,201)"/>
<path d="M0 0 C1.65 0 3.3 0 5 0 C5.1875 3.375 5.1875 3.375 5 7 C4.01 7.66 3.02 8.32 2 9 C1.95745644 7.00045254 1.95919217 4.99958364 2 3 C2.33 2.67 2.66 2.34 3 2 C2.01 1.34 1.02 0.68 0 0 Z " fill="#A2C1EB" transform="translate(241,177)"/>
<path d="M0 0 C0.625 1.8125 0.625 1.8125 1 4 C-1 7 -1 7 -4.125 7.6875 C-5.07375 7.790625 -6.0225 7.89375 -7 8 C-6.02133662 6.85373678 -5.04205413 5.70800212 -4.0625 4.5625 C-3.51722656 3.92441406 -2.97195313 3.28632813 -2.41015625 2.62890625 C-1.63204305 1.73008851 -0.84063472 0.84063472 0 0 Z " fill="#B4CAF0" transform="translate(289,219)"/>
<path d="M0 0 C1.65 0 3.3 0 5 0 C5.33 0.66 5.66 1.32 6 2 C4.88625 2.474375 3.7725 2.94875 2.625 3.4375 C0.73289006 4.25306463 -1.15712709 5.07856355 -3 6 C-3 5.01 -3 4.02 -3 3 C-2.34 3 -1.68 3 -1 3 C-0.67 2.01 -0.34 1.02 0 0 Z " fill="#CBDFF5" transform="translate(441,184)"/>
<path d="M0 0 C2.97 0 5.94 0 9 0 C8.67 1.65 8.34 3.3 8 5 C7.608125 4.525625 7.21625 4.05125 6.8125 3.5625 C4.59191626 1.64820367 2.86624291 1.38733012 0 1 C0 0.67 0 0.34 0 0 Z " fill="#F5FEF8" transform="translate(396,178)"/>
<path d="M0 0 C0.66 0 1.32 0 2 0 C2.12375 0.78375 2.2475 1.5675 2.375 2.375 C2.79117993 5.14057822 2.79117993 5.14057822 5 7 C2.03 6.505 2.03 6.505 -1 6 C-1.042721 4.33388095 -1.04063832 2.66617115 -1 1 C-0.67 0.67 -0.34 0.34 0 0 Z " fill="#CCE6F9" transform="translate(150,154)"/>
<path d="M0 0 C0.33 0 0.66 0 1 0 C0.88541307 1.43836751 0.75790884 2.87570966 0.625 4.3125 C0.55539062 5.11300781 0.48578125 5.91351563 0.4140625 6.73828125 C0 9 0 9 -2 12 C-2.28571429 3.42857143 -2.28571429 3.42857143 0 0 Z " fill="#A9C2F4" transform="translate(376,223)"/>
<path d="M0 0 C0.66 0.33 1.32 0.66 2 1 C0.92598892 3.91517292 0.22189824 5.77810176 -2 8 C-2 5.69 -2 3.38 -2 1 C-1.34 0.67 -0.68 0.34 0 0 Z " fill="#CDDDEA" transform="translate(429,189)"/>
<path d="M0 0 C0.33 0.66 0.66 1.32 1 2 C0.22265625 3.9453125 0.22265625 3.9453125 -0.9375 6.125 C-1.31777344 6.84945312 -1.69804687 7.57390625 -2.08984375 8.3203125 C-2.39019531 8.87460938 -2.69054687 9.42890625 -3 10 C-3.97591583 6.61682513 -3.85856655 4.4342662 -3 1 C-2.01 0.67 -1.02 0.34 0 0 Z " fill="#AAC5E7" transform="translate(388,196)"/>
<path d="M0 0 C0.66 0 1.32 0 2 0 C1.67 1.65 1.34 3.3 1 5 C0.34 5 -0.32 5 -1 5 C-1 5.99 -1 6.98 -1 8 C-1.66 8 -2.32 8 -3 8 C-1.125 2.25 -1.125 2.25 0 0 Z " fill="#B9D5F0" transform="translate(307,192)"/>
<path d="M0 0 C0.66 1.32 1.32 2.64 2 4 C0.02 4.99 0.02 4.99 -2 6 C-2 6.66 -2 7.32 -2 8 C-2.66 7.67 -3.32 7.34 -4 7 C-2.68 4.69 -1.36 2.38 0 0 Z " fill="#AED1EF" transform="translate(334,212)"/>
<path d="M0 0 C1.37432457 3.81756824 0.67975039 7.07255329 0 11 C-0.66 11 -1.32 11 -2 11 C-1.125 3.375 -1.125 3.375 0 0 Z " fill="#ACC4F0" transform="translate(414,201)"/>
</svg>
